<svg width="17" height="17" viewBox="0 0 17 17" fill="none" xmlns="http://www.w3.org/2000/svg">
<path d="M8.5 0C3.808 0 0 3.808 0 8.5C0 13.192 3.808 17 8.5 17C13.192 17 17 13.192 17 8.5C17 3.808 13.192 0 8.5 0ZM9.35 14.45H7.65V12.75H9.35V14.45ZM11.1095 7.8625L10.3445 8.6445C9.7325 9.265 9.35 9.775 9.35 11.05H7.65V10.625C7.65 9.69 8.0325 8.84 8.6445 8.2195L9.6985 7.1485C10.013 6.8425 10.2 6.4175 10.2 5.95C10.2 5.015 9.435 4.25 8.5 4.25C7.565 4.25 6.8 5.015 6.8 5.95H5.1C5.1 4.0715 6.6215 2.55 8.5 2.55C10.3785 2.55 11.9 4.0715 11.9 5.95C11.9 6.698 11.594 7.378 11.1095 7.8625Z" fill="#757295"/>
</svg>
