<svg width="38" height="38" viewBox="0 0 38 38" fill="none" xmlns="http://www.w3.org/2000/svg">
<path d="M19.0793 10.7754L16.7351 14.1994" stroke="#AFA6C5" stroke-miterlimit="10"/>
<path d="M26.2184 10.3467L32.0664 14.4792" stroke="#AFA6C5" stroke-miterlimit="10"/>
<path d="M19.4237 27.5952L25.3634 30.1922" stroke="#AFA6C5" stroke-miterlimit="10"/>
<path d="M10.9937 32.4111C16.4446 32.4111 20.8634 27.9149 20.8634 22.3685C20.8634 16.8221 16.4446 12.3259 10.9937 12.3259C5.54275 12.3259 1.1239 16.8221 1.1239 22.3685C1.1239 27.9149 5.54275 32.4111 10.9937 32.4111Z" fill="#577BF9" stroke="#E9E9F4" stroke-miterlimit="10"/>
<path d="M22.4147 11.9654C25.3652 11.9654 27.7572 9.53157 27.7572 6.52932C27.7572 3.52707 25.3652 1.09326 22.4147 1.09326C19.4641 1.09326 17.0721 3.52707 17.0721 6.52932C17.0721 9.53157 19.4641 11.9654 22.4147 11.9654Z" fill="#E2E9FF" stroke="#E9E9F4" stroke-width="0.75" stroke-miterlimit="10"/>
<path d="M30.4829 36.9068C33.402 36.9068 35.7684 34.4989 35.7684 31.5287C35.7684 28.5585 33.402 26.1506 30.4829 26.1506C27.5638 26.1506 25.1974 28.5585 25.1974 31.5287C25.1974 34.4989 27.5638 36.9068 30.4829 36.9068Z" fill="#E2E9FF" stroke="#E9E9F4" stroke-width="0.75" stroke-miterlimit="10"/>
<path d="M34.2816 18.5839C35.7309 18.5839 36.9058 17.3884 36.9058 15.9138C36.9058 14.4391 35.7309 13.2437 34.2816 13.2437C32.8324 13.2437 31.6575 14.4391 31.6575 15.9138C31.6575 17.3884 32.8324 18.5839 34.2816 18.5839Z" fill="#E2E9FF" stroke="#E9E9F4" stroke-width="0.75" stroke-miterlimit="10"/>
</svg>
